# xmcd CD database file
#
# Track frame offsets:
#	150
#	35372
#	51142
#	71695
#	88482
#	118770
#	132982
#	164867
#	177002
#	197202
#	219392
#	237364
#	259729
#	282674
#	308172
#	328999
#
# Disc length: 4687 seconds
#
# Revision: 0
# Processed by: cddbd v1.5.2PL0 Copyright (c) Steve Scherf et al.
# Submitted via: CDex 1.51
#
DISCID=02124d10
DTITLE=Yuzuru Sera - The Days Of Wine And Women  -2-
DYEAR=2004
DGENRE=Jazz
TTITLE0=Mac's Blues
TTITLE1=Peg O'my Heart
TTITLE2=After You've Gone
TTITLE3=Misty
TTITLE4=Shiny Stocking
TTITLE5=My Ideal
TTITLE6=Softly As In A Moorning Sunrise
TTITLE7=Thanks For The Memory
TTITLE8=Bye Bye Blackbird
TTITLE9=But Not For Me
TTITLE10=Linda
TTITLE11=I'm Gonna Sit Right Down And Write Myself A Letter
TTITLE12=Paper Doll
TTITLE13=It Could Happen To You
TTITLE14=Everything Happens To Me
TTITLE15=You Took Advantage Of Me
EXTD=YEAR: 2004
EXTT0=
EXTT1=
EXTT2=
EXTT3=
EXTT4=
EXTT5=
EXTT6=
EXTT7=
EXTT8=
EXTT9=
EXTT10=
EXTT11=
EXTT12=
EXTT13=
EXTT14=
EXTT15=
PLAYORDER=
